<svg width="486" height="700" viewBox="0 0 486 700" fill="none" xmlns="http://www.w3.org/2000/svg">
<rect x="0.25" width="485" height="700" fill="url(#paint0_radial_185:43)"/>
<mask id="mask0_185:43" style="mask-type:alpha" maskUnits="userSpaceOnUse" x="0" y="0" width="485" height="552">
<rect width="485" height="552" fill="url(#paint1_radial_185:43)"/>
</mask>
<g mask="url(#mask0_185:43)">
<mask id="mask1_185:43" style="mask-type:alpha" maskUnits="userSpaceOnUse" x="-14" y="181" width="271" height="305">
<rect x="-14" y="181.25" width="270.75" height="304" fill="#C4C4C4"/>
</mask>
<g mask="url(#mask1_185:43)">
<path d="M-10.4389 232.099L1.44855 447.006L105.713 433.283L102.146 368.811L141.51 364.149C171.562 360.59 196.144 350.571 215.679 334.042C235.214 317.513 244.371 298.197 243.165 276.399C241.959 254.601 230.799 237.691 209.701 225.974C188.603 214.258 163.24 210.154 133.189 213.714L-10.4389 232.099ZM99.2595 316.619L96.7291 270.875L136.093 266.212C153.023 264.207 166.654 271.864 167.401 285.372C168.148 298.881 155.553 309.952 138.623 311.957L99.2595 316.619Z" fill="white"/>
<path d="M513.699 168.647L307.57 193.061L312.749 286.699C314.397 316.479 308.881 340 296.203 357.261L264.881 360.971L270.095 455.223L345.859 446.25L343.583 405.111L481.99 388.718L484.266 429.858L559.607 420.934L554.393 326.682L522.649 330.442L513.699 168.647ZM374.93 347.937C385.458 330.312 389.704 306.942 388.124 278.39L385.73 235.101L441.177 228.534L447.308 339.365L374.93 347.937Z" fill="white"/>
<mask id="mask2_185:43" style="mask-type:alpha" maskUnits="userSpaceOnUse" x="-11" y="169" width="572" height="287">
<path d="M-10.4838 231.896L1.39352 446.803L106.158 433.834L102.595 369.361L141.959 364.701C172.01 361.143 196.593 351.126 216.129 334.598C235.665 318.07 244.823 298.754 243.618 276.956C242.413 255.158 231.254 238.247 210.156 226.53C189.059 214.813 163.696 210.708 133.644 214.266L-10.4838 231.896ZM99.7104 317.17L97.1822 271.425L136.546 266.765C153.477 264.76 167.107 272.417 167.853 285.926C168.6 299.434 156.005 310.505 139.074 312.509L99.7104 317.17Z" fill="white"/>
<path d="M514.156 169.218L308.026 193.621L313.202 287.259C314.847 317.039 309.331 340.56 296.652 357.821L265.33 361.529L270.539 455.781L346.304 446.812L344.03 405.672L482.438 389.287L484.711 430.426L560.052 421.506L554.843 327.254L523.098 331.012L514.156 169.218ZM375.379 348.501C385.908 330.876 390.155 307.506 388.577 278.954L386.184 235.665L441.632 229.101L447.757 339.932L375.379 348.501Z" fill="white"/>
</mask>
<g mask="url(#mask2_185:43)">
<rect x="-0.000244141" y="140" width="485" height="378" fill="white"/>
<g style="mix-blend-mode:hard-light" filter="url(#filter0_f_185:43)">
<circle cx="316.98" cy="219.823" r="114" transform="rotate(-10.5827 316.98 219.823)" fill="url(#paint2_radial_185:43)"/>
</g>
<g style="mix-blend-mode:hard-light" filter="url(#filter1_f_185:43)">
<ellipse cx="164.706" cy="357.94" rx="116.929" ry="111.625" transform="rotate(-1.9087 164.706 357.94)" fill="url(#paint3_radial_185:43)"/>
</g>
<g style="mix-blend-mode:hard-light" filter="url(#filter2_f_185:43)">
<ellipse cx="168.054" cy="204.132" rx="127.328" ry="114" transform="rotate(-1.9087 168.054 204.132)" fill="url(#paint4_radial_185:43)"/>
</g>
<g style="mix-blend-mode:hard-light" filter="url(#filter3_f_185:43)">
<ellipse cx="320.241" cy="366.596" rx="114" ry="111.625" transform="rotate(-10.5827 320.241 366.596)" fill="url(#paint5_radial_185:43)"/>
</g>
</g>
</g>
<mask id="mask3_185:43" style="mask-type:alpha" maskUnits="userSpaceOnUse" x="210" y="167" width="276" height="276">
<rect x="210" y="167" width="275.5" height="275.5" fill="#C4C4C4"/>
</mask>
<g mask="url(#mask3_185:43)">
<path d="M-33.4389 230.3L-21.5514 425.06L54.2127 416.928L50.6464 358.5L90.0099 354.275C120.062 351.05 144.644 341.97 164.179 326.991C183.714 312.012 192.871 294.506 191.665 274.752C190.459 254.998 179.299 239.673 158.201 229.055C137.103 218.437 111.74 214.718 81.6887 217.944L-33.4389 230.3ZM47.7595 311.202L45.2291 269.746L84.5926 265.521C101.523 263.703 115.154 270.642 115.901 282.884C116.648 295.126 104.053 305.159 87.1229 306.977L47.7595 311.202Z" fill="white"/>
<path d="M485.949 172.798L256.07 199.227L261.249 284.086C262.897 311.074 257.381 332.39 244.703 348.034L213.381 351.395L218.595 436.811L294.359 428.679L292.083 391.397L430.49 376.541L432.766 413.824L531.857 401.433L526.643 316.017L494.899 319.424L485.949 172.798ZM323.43 339.584C333.958 323.611 338.203 302.431 336.624 276.556L334.23 237.326L389.677 231.375L395.808 331.815L323.43 339.584Z" fill="white"/>
<mask id="mask4_185:43" style="mask-type:alpha" maskUnits="userSpaceOnUse" x="-33" y="177" width="542" height="261">
<path d="M-32.9848 230.796L-21.1066 425.556L54.658 417.428L51.0945 359L90.4583 354.777C120.51 351.552 145.093 342.474 164.629 327.496C184.165 312.518 193.322 295.012 192.117 275.258C190.913 255.504 179.753 240.178 158.656 229.559C137.558 218.94 112.195 215.22 82.1435 218.445L-32.9848 230.796ZM48.2098 311.701L45.6815 270.245L85.0452 266.022C101.976 264.205 115.606 271.144 116.353 283.386C117.099 295.628 104.504 305.661 87.5736 307.478L48.2098 311.701Z" fill="white"/>
<path d="M462.656 177.621L256.526 199.736L261.701 284.596C263.347 311.584 257.831 332.899 245.152 348.542L213.83 351.902L219.039 437.319L294.804 429.19L292.53 391.907L430.938 377.058L433.212 414.341L508.553 406.258L503.344 320.842L471.599 324.247L462.656 177.621ZM323.879 340.096C334.408 324.123 338.655 302.944 337.077 277.069L334.684 237.839L390.132 231.89L396.258 332.331L323.879 340.096Z" fill="white"/>
</mask>
<g mask="url(#mask4_185:43)">
<rect x="0.75" y="140" width="485" height="378" fill="white"/>
<g style="mix-blend-mode:hard-light" filter="url(#filter4_f_185:43)">
<ellipse rx="113.656" ry="103.691" transform="matrix(0.987293 0.15891 -0.123684 0.992322 314.786 228.956)" fill="url(#paint6_radial_185:43)"/>
</g>
<g style="mix-blend-mode:hard-light" filter="url(#filter5_f_185:43)">
<ellipse rx="113.656" ry="101.531" transform="matrix(0.985967 -0.166941 0.201914 0.979403 131.024 344.778)" fill="url(#paint7_radial_185:43)"/>
</g>
<g style="mix-blend-mode:hard-light" filter="url(#filter6_f_185:43)">
<ellipse rx="111.288" ry="103.691" transform="matrix(0.985967 -0.166941 0.201914 0.979403 130.97 215.601)" fill="url(#paint8_radial_185:43)"/>
</g>
<g style="mix-blend-mode:hard-light" filter="url(#filter7_f_185:43)">
<ellipse rx="113.656" ry="101.531" transform="matrix(0.987293 0.15891 -0.123684 0.992322 324.519 386.812)" fill="url(#paint9_radial_185:43)"/>
</g>
</g>
</g>
</g>
<defs>
<filter id="filter0_f_185:43" x="155.459" y="58.303" width="323.041" height="323.041" filterUnits="userSpaceOnUse" color-interpolation-filters="sRGB">
<feFlood flood-opacity="0" result="BackgroundImageFix"/>
<feBlend mode="normal" in="SourceGraphic" in2="BackgroundImageFix" result="shape"/>
<feGaussianBlur stdDeviation="23.75" result="effect1_foregroundBlur_185:43"/>
</filter>
<filter id="filter1_f_185:43" x="0.281738" y="198.807" width="328.848" height="318.265" filterUnits="userSpaceOnUse" color-interpolation-filters="sRGB">
<feFlood flood-opacity="0" result="BackgroundImageFix"/>
<feBlend mode="normal" in="SourceGraphic" in2="BackgroundImageFix" result="shape"/>
<feGaussianBlur stdDeviation="23.75" result="effect1_foregroundBlur_185:43"/>
</filter>
<filter id="filter2_f_185:43" x="-6.76074" y="42.6146" width="349.63" height="323.034" filterUnits="userSpaceOnUse" color-interpolation-filters="sRGB">
<feFlood flood-opacity="0" result="BackgroundImageFix"/>
<feBlend mode="normal" in="SourceGraphic" in2="BackgroundImageFix" result="shape"/>
<feGaussianBlur stdDeviation="23.75" result="effect1_foregroundBlur_185:43"/>
</filter>
<filter id="filter3_f_185:43" x="158.8" y="207.37" width="322.881" height="318.453" filterUnits="userSpaceOnUse" color-interpolation-filters="sRGB">
<feFlood flood-opacity="0" result="BackgroundImageFix"/>
<feBlend mode="normal" in="SourceGraphic" in2="BackgroundImageFix" result="shape"/>
<feGaussianBlur stdDeviation="23.75" result="effect1_foregroundBlur_185:43"/>
</filter>
<filter id="filter4_f_185:43" x="154.334" y="76.9706" width="320.905" height="303.97" filterUnits="userSpaceOnUse" color-interpolation-filters="sRGB">
<feFlood flood-opacity="0" result="BackgroundImageFix"/>
<feBlend mode="normal" in="SourceGraphic" in2="BackgroundImageFix" result="shape"/>
<feGaussianBlur stdDeviation="23.75" result="effect1_foregroundBlur_185:43"/>
</filter>
<filter id="filter5_f_185:43" x="-30.4163" y="196.026" width="322.881" height="297.504" filterUnits="userSpaceOnUse" color-interpolation-filters="sRGB">
<feFlood flood-opacity="0" result="BackgroundImageFix"/>
<feBlend mode="normal" in="SourceGraphic" in2="BackgroundImageFix" result="shape"/>
<feGaussianBlur stdDeviation="23.75" result="effect1_foregroundBlur_185:43"/>
</filter>
<filter id="filter6_f_185:43" x="-28.2563" y="64.8423" width="318.453" height="301.517" filterUnits="userSpaceOnUse" color-interpolation-filters="sRGB">
<feFlood flood-opacity="0" result="BackgroundImageFix"/>
<feBlend mode="normal" in="SourceGraphic" in2="BackgroundImageFix" result="shape"/>
<feGaussianBlur stdDeviation="23.75" result="effect1_foregroundBlur_185:43"/>
</filter>
<filter id="filter7_f_185:43" x="164.097" y="236.938" width="320.844" height="299.749" filterUnits="userSpaceOnUse" color-interpolation-filters="sRGB">
<feFlood flood-opacity="0" result="BackgroundImageFix"/>
<feBlend mode="normal" in="SourceGraphic" in2="BackgroundImageFix" result="shape"/>
<feGaussianBlur stdDeviation="23.75" result="effect1_foregroundBlur_185:43"/>
</filter>
<radialGradient id="paint0_radial_185:43" cx="0" cy="0" r="1" gradientUnits="userSpaceOnUse" gradientTransform="translate(243.25) rotate(90.0557) scale(514.5 356.475)">
<stop stop-color="#413F3F"/>
<stop offset="1" stop-color="#141313"/>
</radialGradient>
<radialGradient id="paint1_radial_185:43" cx="0" cy="0" r="1" gradientUnits="userSpaceOnUse" gradientTransform="translate(243) rotate(90.0706) scale(405.72 356.475)">
<stop stop-color="#413F3F"/>
<stop offset="1" stop-color="#141313"/>
</radialGradient>
<radialGradient id="paint2_radial_185:43" cx="0" cy="0" r="1" gradientUnits="userSpaceOnUse" gradientTransform="translate(316.98 219.823) rotate(90) scale(114)">
<stop stop-color="#1EABD7" stop-opacity="0.71"/>
<stop offset="1" stop-color="#1EABD7"/>
</radialGradient>
<radialGradient id="paint3_radial_185:43" cx="0" cy="0" r="1" gradientUnits="userSpaceOnUse" gradientTransform="translate(164.706 357.94) rotate(90) scale(111.625 116.929)">
<stop stop-color="#9C7E13"/>
<stop offset="1" stop-color="#7C500C"/>
</radialGradient>
<radialGradient id="paint4_radial_185:43" cx="0" cy="0" r="1" gradientUnits="userSpaceOnUse" gradientTransform="translate(168.054 204.132) rotate(90) scale(114 127.328)">
<stop stop-color="#D61E1E" stop-opacity="0.71"/>
<stop offset="0.96875" stop-color="#D61E6B"/>
</radialGradient>
<radialGradient id="paint5_radial_185:43" cx="0" cy="0" r="1" gradientUnits="userSpaceOnUse" gradientTransform="translate(320.241 366.596) rotate(90) scale(111.625 114)">
<stop stop-color="#479622" stop-opacity="0.71"/>
<stop offset="1" stop-color="#4C690D"/>
</radialGradient>
<radialGradient id="paint6_radial_185:43" cx="0" cy="0" r="1" gradientUnits="userSpaceOnUse" gradientTransform="translate(113.656 103.691) rotate(90) scale(103.691 113.656)">
<stop stop-color="#005B78"/>
<stop offset="1" stop-color="#1EABD7"/>
</radialGradient>
<radialGradient id="paint7_radial_185:43" cx="0" cy="0" r="1" gradientUnits="userSpaceOnUse" gradientTransform="translate(113.656 101.531) rotate(90) scale(101.531 113.656)">
<stop stop-color="#D7AE1E" stop-opacity="0.71"/>
<stop offset="1" stop-color="#7C500C"/>
</radialGradient>
<radialGradient id="paint8_radial_185:43" cx="0" cy="0" r="1" gradientUnits="userSpaceOnUse" gradientTransform="translate(111.288 103.691) rotate(90) scale(103.691 111.288)">
<stop stop-color="#D61E1E" stop-opacity="0.71"/>
<stop offset="0.96875" stop-color="#D61E6B"/>
</radialGradient>
<radialGradient id="paint9_radial_185:43" cx="0" cy="0" r="1" gradientUnits="userSpaceOnUse" gradientTransform="translate(113.656 101.531) rotate(90) scale(101.531 113.656)">
<stop stop-color="#326A17"/>
<stop offset="1" stop-color="#4C690D"/>
</radialGradient>
</defs>
</svg>
