<svg width="31" height="32" viewBox="0 0 31 32" fill="none" xmlns="http://www.w3.org/2000/svg">
<rect x="0.642857" y="0.642857" width="28.7143" height="28.7143" rx="4.5" stroke="white" stroke-width="1.28571"/>
<path d="M4.28613 6.85713C4.28613 5.43697 5.4374 4.28571 6.85756 4.28571H17.679H23.1433C24.5634 4.28571 25.7147 5.43697 25.7147 6.85713V11.25V23.1429C25.7147 24.563 24.5634 25.7143 23.1433 25.7143H6.85756C5.4374 25.7143 4.28613 24.563 4.28613 23.1428V6.85713Z" fill="#383636"/>
<g clip-path="url(#clip0)">
<mask id="path-3-inside-1" fill="white">
<path d="M17.7941 19.3321C17.3616 18.868 16.7967 18.6037 16.2047 18.5432L15.8962 17.1856C16.1514 17.0626 16.3885 16.8927 16.6069 16.6892C16.8254 16.4857 17.0115 16.2612 17.1713 16.0358L18.4519 16.4112C18.4569 17.0187 18.7001 17.6082 19.1389 18.0792C20.0866 19.0963 21.6685 19.1655 22.6856 18.2178C23.7027 17.2702 23.7523 15.681 22.8047 14.6639C21.857 13.6467 20.2615 13.5903 19.2443 14.538C19.1283 14.6461 19.0045 14.7869 18.9007 14.9219L17.6142 14.5265C17.6479 13.9468 17.5106 13.3478 17.2196 12.8028L18.1685 11.9187C19.1007 12.4402 20.2994 12.3308 21.1186 11.5676C22.1357 10.6199 22.1853 9.03071 21.2376 8.01359C20.29 6.99646 18.714 6.94733 17.6969 7.89498C16.8777 8.65819 16.6716 9.81936 17.1127 10.7856L16.157 11.676C14.9564 10.9074 13.3488 11.0023 12.2566 12.02C11.1644 13.0376 10.9493 14.6407 11.638 15.8863L10.6482 16.8086C9.71553 16.3003 8.54271 16.4238 7.72354 17.187C6.70642 18.1347 6.63727 19.7166 7.58493 20.7337C8.53258 21.7509 10.1281 21.8073 11.1453 20.8596C11.9644 20.0964 12.1583 18.9084 11.7039 17.9417L12.6869 17.0259C13.2032 17.361 13.7846 17.5334 14.3717 17.5476L14.6747 18.872C14.5196 18.9655 14.3772 19.0727 14.2406 19.1999C13.2235 20.1475 13.1671 21.7431 14.1147 22.7602C15.0624 23.7774 16.6579 23.8338 17.6751 22.8861C18.6922 21.9385 18.7418 20.3493 17.7941 19.3321ZM21.8695 15.5352C22.3401 16.0403 22.3126 16.8183 21.8143 17.2826C21.316 17.7469 20.5243 17.7321 20.0537 17.227C19.583 16.7218 19.6174 15.9375 20.1225 15.4668C20.6277 14.9962 21.3988 15.03 21.8695 15.5352ZM18.5555 8.81654C19.0606 8.34589 19.8454 8.36704 20.3161 8.8722C20.7867 9.37735 20.746 10.1549 20.2409 10.6255C19.7357 11.0962 18.9573 11.0818 18.4866 10.5767C18.016 10.0715 18.0503 9.28718 18.5555 8.81654ZM10.2676 19.9176C9.76242 20.3882 8.98396 20.3739 8.51331 19.8688C8.04267 19.3636 8.077 18.5792 8.58215 18.1086C9.0873 17.638 9.87213 17.6591 10.3428 18.1643C10.8134 18.6694 10.7727 19.4469 10.2676 19.9176ZM13.1211 15.5757C12.4469 14.8521 12.487 13.7181 13.2106 13.0439C13.9342 12.3697 15.0683 12.4098 15.7424 13.1334C16.4166 13.857 16.3765 14.9911 15.6529 15.6652C14.9293 16.3394 13.7953 16.2993 13.1211 15.5757ZM15.0431 21.8953C14.5725 21.3901 14.6068 20.6057 15.112 20.1351C15.6171 19.6645 16.3951 19.692 16.8657 20.1971C17.3364 20.7023 17.3021 21.4866 16.8037 21.9509C16.3054 22.4152 15.5138 22.4004 15.0431 21.8953Z"/>
</mask>
<path d="M17.7941 19.3321C17.3616 18.868 16.7967 18.6037 16.2047 18.5432L15.8962 17.1856C16.1514 17.0626 16.3885 16.8927 16.6069 16.6892C16.8254 16.4857 17.0115 16.2612 17.1713 16.0358L18.4519 16.4112C18.4569 17.0187 18.7001 17.6082 19.1389 18.0792C20.0866 19.0963 21.6685 19.1655 22.6856 18.2178C23.7027 17.2702 23.7523 15.681 22.8047 14.6639C21.857 13.6467 20.2615 13.5903 19.2443 14.538C19.1283 14.6461 19.0045 14.7869 18.9007 14.9219L17.6142 14.5265C17.6479 13.9468 17.5106 13.3478 17.2196 12.8028L18.1685 11.9187C19.1007 12.4402 20.2994 12.3308 21.1186 11.5676C22.1357 10.6199 22.1853 9.03071 21.2376 8.01359C20.29 6.99646 18.714 6.94733 17.6969 7.89498C16.8777 8.65819 16.6716 9.81936 17.1127 10.7856L16.157 11.676C14.9564 10.9074 13.3488 11.0023 12.2566 12.02C11.1644 13.0376 10.9493 14.6407 11.638 15.8863L10.6482 16.8086C9.71553 16.3003 8.54271 16.4238 7.72354 17.187C6.70642 18.1347 6.63727 19.7166 7.58493 20.7337C8.53258 21.7509 10.1281 21.8073 11.1453 20.8596C11.9644 20.0964 12.1583 18.9084 11.7039 17.9417L12.6869 17.0259C13.2032 17.361 13.7846 17.5334 14.3717 17.5476L14.6747 18.872C14.5196 18.9655 14.3772 19.0727 14.2406 19.1999C13.2235 20.1475 13.1671 21.7431 14.1147 22.7602C15.0624 23.7774 16.6579 23.8338 17.6751 22.8861C18.6922 21.9385 18.7418 20.3493 17.7941 19.3321ZM21.8695 15.5352C22.3401 16.0403 22.3126 16.8183 21.8143 17.2826C21.316 17.7469 20.5243 17.7321 20.0537 17.227C19.583 16.7218 19.6174 15.9375 20.1225 15.4668C20.6277 14.9962 21.3988 15.03 21.8695 15.5352ZM18.5555 8.81654C19.0606 8.34589 19.8454 8.36704 20.3161 8.8722C20.7867 9.37735 20.746 10.1549 20.2409 10.6255C19.7357 11.0962 18.9573 11.0818 18.4866 10.5767C18.016 10.0715 18.0503 9.28718 18.5555 8.81654ZM10.2676 19.9176C9.76242 20.3882 8.98396 20.3739 8.51331 19.8688C8.04267 19.3636 8.077 18.5792 8.58215 18.1086C9.0873 17.638 9.87213 17.6591 10.3428 18.1643C10.8134 18.6694 10.7727 19.4469 10.2676 19.9176ZM13.1211 15.5757C12.4469 14.8521 12.487 13.7181 13.2106 13.0439C13.9342 12.3697 15.0683 12.4098 15.7424 13.1334C16.4166 13.857 16.3765 14.9911 15.6529 15.6652C14.9293 16.3394 13.7953 16.2993 13.1211 15.5757ZM15.0431 21.8953C14.5725 21.3901 14.6068 20.6057 15.112 20.1351C15.6171 19.6645 16.3951 19.692 16.8657 20.1971C17.3364 20.7023 17.3021 21.4866 16.8037 21.9509C16.3054 22.4152 15.5138 22.4004 15.0431 21.8953Z" fill="white"/>
<path d="M16.2047 18.5432L13.2792 19.2079L13.7565 21.3085L15.8995 21.5276L16.2047 18.5432ZM15.8962 17.1856L14.5937 14.4831L12.4414 15.5205L12.9708 17.8503L15.8962 17.1856ZM17.1713 16.0358L18.0152 13.1569L15.9617 12.555L14.724 14.3007L17.1713 16.0358ZM18.4519 16.4112L21.4518 16.3868L21.4338 14.1589L19.2958 13.5323L18.4519 16.4112ZM18.9007 14.9219L18.0194 17.7895L20.0095 18.4011L21.2787 16.7508L18.9007 14.9219ZM17.6142 14.5265L14.6192 14.3524L14.4826 16.7026L16.7329 17.3942L17.6142 14.5265ZM17.2196 12.8028L15.1746 10.6078L13.4866 12.1806L14.5732 14.2158L17.2196 12.8028ZM18.1685 11.9187L19.6332 9.30057L17.724 8.23257L16.1235 9.72378L18.1685 11.9187ZM17.1127 10.7856L19.1578 12.9805L20.7398 11.5066L19.8418 9.53959L17.1127 10.7856ZM16.157 11.676L14.5396 14.2026L16.4995 15.4572L18.2021 13.8709L16.157 11.676ZM11.638 15.8863L13.683 18.0813L15.3968 16.4846L14.2634 14.4347L11.638 15.8863ZM10.6482 16.8086L9.21254 19.4427L11.1112 20.4775L12.6932 19.0035L10.6482 16.8086ZM11.7039 17.9417L9.65891 15.7468L8.05838 17.238L8.98886 19.2178L11.7039 17.9417ZM12.6869 17.0259L14.3204 14.5096L12.3557 13.2342L10.6419 14.8309L12.6869 17.0259ZM14.3717 17.5476L17.2961 16.8784L16.7758 14.6047L14.444 14.5484L14.3717 17.5476ZM14.6747 18.872L16.2237 21.4411L18.0835 20.3198L17.5991 18.2028L14.6747 18.872ZM19.9891 17.2871C19.0421 16.2707 17.7963 15.6903 16.5099 15.5587L15.8995 21.5276C15.8518 21.5227 15.7974 21.5087 15.7417 21.4815C15.6845 21.4536 15.6357 21.4164 15.5992 21.3772L19.9891 17.2871ZM19.1301 17.8785L18.8216 16.5209L12.9708 17.8503L13.2792 19.2079L19.1301 17.8785ZM17.1988 19.888C17.7713 19.6121 18.2534 19.2554 18.6519 18.8842L14.5619 14.4942C14.5437 14.5112 14.536 14.5161 14.5401 14.5133C14.5443 14.5103 14.562 14.4984 14.5937 14.4831L17.1988 19.888ZM18.6519 18.8842C19.0513 18.5121 19.3685 18.1237 19.6187 17.7709L14.724 14.3007C14.6545 14.3987 14.5994 14.4592 14.5619 14.4942L18.6519 18.8842ZM16.3275 18.9147L17.6081 19.29L19.2958 13.5323L18.0152 13.1569L16.3275 18.9147ZM15.452 16.4355C15.4635 17.8432 16.0284 19.1415 16.944 20.1242L21.3339 16.0342C21.3718 16.0749 21.4503 16.1941 21.4518 16.3868L15.452 16.4355ZM16.944 20.1242C19.0012 22.3323 22.48 22.5097 24.7306 20.4128L20.6406 16.0229C20.8569 15.8213 21.172 15.8604 21.3339 16.0342L16.944 20.1242ZM24.7306 20.4128C26.9706 18.3258 27.0668 14.8376 24.9996 12.6188L20.6097 16.7089C20.4378 16.5244 20.4349 16.2145 20.6406 16.0229L24.7306 20.4128ZM24.9996 12.6188C22.9226 10.3895 19.4287 10.2659 17.1993 12.343L21.2894 16.7329C21.0943 16.9147 20.7915 16.904 20.6097 16.7089L24.9996 12.6188ZM17.1993 12.343C16.9335 12.5906 16.6999 12.8625 16.5226 13.093L21.2787 16.7508C21.2829 16.7454 21.288 16.739 21.2936 16.7322C21.2992 16.7254 21.3042 16.7196 21.3081 16.7153C21.312 16.7108 21.3134 16.7095 21.3116 16.7114C21.3106 16.7124 21.3084 16.7146 21.3049 16.7181C21.3015 16.7215 21.2963 16.7265 21.2894 16.7329L17.1993 12.343ZM19.782 12.0543L18.4955 11.6589L16.7329 17.3942L18.0194 17.7895L19.782 12.0543ZM20.6091 14.7006C20.677 13.5335 20.3993 12.3886 19.866 11.3898L14.5732 14.2158C14.622 14.307 14.6188 14.36 14.6192 14.3524L20.6091 14.7006ZM19.2647 14.9978L20.2135 14.1137L16.1235 9.72378L15.1746 10.6078L19.2647 14.9978ZM16.7039 14.5369C18.7326 15.6718 21.3568 15.4459 23.1636 13.7625L19.0735 9.3726C19.242 9.21562 19.4687 9.20859 19.6332 9.30057L16.7039 14.5369ZM23.1636 13.7625C25.4036 11.6756 25.4998 8.1873 23.4326 5.96856L19.0427 10.0586C18.8708 9.87413 18.8678 9.56426 19.0735 9.3726L23.1636 13.7625ZM23.4326 5.96856C21.3456 3.72853 17.8705 3.63288 15.6518 5.70002L19.7419 10.0899C19.5574 10.2618 19.2344 10.2644 19.0427 10.0586L23.4326 5.96856ZM15.6518 5.70002C13.8749 7.35557 13.4137 9.90691 14.3837 12.0315L19.8418 9.53959C19.9295 9.73181 19.8805 9.96081 19.7419 10.0899L15.6518 5.70002ZM15.0677 8.59061L14.112 9.48102L18.2021 13.8709L19.1578 12.9805L15.0677 8.59061ZM17.7745 9.14933C15.4667 7.672 12.3455 7.83686 10.2116 9.825L14.3016 14.2149C14.3345 14.1843 14.3657 14.1717 14.4045 14.1687C14.4505 14.165 14.4992 14.1767 14.5396 14.2026L17.7745 9.14933ZM10.2116 9.825C8.0879 11.8036 7.67395 14.9169 9.01258 17.338L14.2634 14.4347C14.2477 14.4062 14.2382 14.3655 14.2452 14.3197C14.2512 14.2801 14.2675 14.2467 14.3016 14.2149L10.2116 9.825ZM9.59296 13.6914L8.60314 14.6136L12.6932 19.0035L13.683 18.0813L9.59296 13.6914ZM12.0838 14.1744C10.033 13.0567 7.45544 13.3365 5.67851 14.9921L9.76857 19.382C9.62997 19.5111 9.39808 19.5439 9.21254 19.4427L12.0838 14.1744ZM5.67851 14.9921C3.47048 17.0493 3.2931 20.5282 5.38996 22.7788L9.77989 18.6887C9.98145 18.905 9.94235 19.2201 9.76857 19.382L5.67851 14.9921ZM5.38996 22.7788C7.46705 25.0081 10.9609 25.1317 13.1903 23.0546L9.10023 18.6647C9.29535 18.4829 9.5981 18.4936 9.77989 18.6887L5.38996 22.7788ZM13.1903 23.0546C14.9971 21.3712 15.4078 18.7695 14.419 16.6657L8.98886 19.2178C8.90872 19.0473 8.93175 18.8216 9.10023 18.6647L13.1903 23.0546ZM13.749 20.1367L14.732 19.2208L10.6419 14.8309L9.65891 15.7468L13.749 20.1367ZM11.0535 19.5422C12.0449 20.1858 13.1687 20.5194 14.2993 20.5467L14.444 14.5484C14.4204 14.5479 14.3997 14.5442 14.3813 14.5386C14.3633 14.5331 14.3432 14.5243 14.3204 14.5096L11.0535 19.5422ZM11.4472 18.2167L11.7503 19.5411L17.5991 18.2028L17.2961 16.8784L11.4472 18.2167ZM13.1257 16.3028C12.792 16.504 12.4834 16.7368 12.1956 17.0049L16.2857 21.3949C16.2802 21.3999 16.2707 21.4082 16.2579 21.4178C16.2451 21.4275 16.2332 21.4354 16.2237 21.4411L13.1257 16.3028ZM12.1956 17.0049C9.96622 19.082 9.84267 22.5759 11.9198 24.8053L16.3097 20.7152C16.4915 20.9103 16.4808 21.2131 16.2857 21.3949L12.1956 17.0049ZM11.9198 24.8053C13.9969 27.0346 17.4907 27.1582 19.7201 25.0811L15.63 20.6912C15.8251 20.5094 16.1279 20.5201 16.3097 20.7152L11.9198 24.8053ZM19.7201 25.0811C21.9601 22.9941 22.0563 19.5059 19.9891 17.2871L15.5992 21.3772C15.4273 21.1927 15.4243 20.8828 15.63 20.6912L19.7201 25.0811ZM19.6745 17.5802C19.0258 16.8839 19.0445 15.7629 19.7693 15.0877L23.8593 19.4776C25.5807 17.8738 25.6544 15.1967 24.0644 13.4902L19.6745 17.5802ZM19.7693 15.0877C20.451 14.4525 21.5601 14.4429 22.2486 15.1819L17.8587 19.272C19.4886 21.0213 22.1809 21.0413 23.8593 19.4776L19.7693 15.0877ZM22.2486 15.1819C22.9273 15.9104 22.8531 17.023 22.1675 17.6618L18.0775 13.2718C16.3816 14.8519 16.2387 17.5332 17.8587 19.272L22.2486 15.1819ZM22.1675 17.6618C21.4388 18.3407 20.3131 18.2656 19.6745 17.5802L24.0644 13.4902C22.4846 11.7945 19.8165 11.6516 18.0775 13.2718L22.1675 17.6618ZM20.6005 11.0115C19.9149 11.6503 18.7998 11.6457 18.1211 10.9172L22.511 6.82717C20.891 5.08838 18.2063 5.04152 16.5104 6.62158L20.6005 11.0115ZM18.1211 10.9172C17.4224 10.1672 17.5321 9.04898 18.1959 8.43056L22.2859 12.8205C23.96 11.2608 24.1511 8.58745 22.511 6.82717L18.1211 10.9172ZM18.1959 8.43056C18.8596 7.81215 19.9828 7.78168 20.6816 8.53166L16.2917 12.6217C17.9317 14.382 20.6119 14.3802 22.2859 12.8205L18.1959 8.43056ZM20.6816 8.53166C21.3603 9.26015 21.2861 10.3727 20.6005 11.0115L16.5104 6.62158C14.8145 8.20163 14.6716 10.8829 16.2917 12.6217L20.6816 8.53166ZM8.22254 17.7226C8.8863 17.1042 10.0095 17.0737 10.7083 17.8237L6.31835 21.9138C7.95839 23.6741 10.6385 23.6723 12.3126 22.1125L8.22254 17.7226ZM10.7083 17.8237C11.387 18.5522 11.3128 19.6648 10.6272 20.3036L6.53712 15.9136C4.84123 17.4937 4.69834 20.175 6.31835 21.9138L10.7083 17.8237ZM10.6272 20.3036C9.94159 20.9423 8.82653 20.9378 8.14781 20.2093L12.5377 16.1192C10.9177 14.3804 8.23302 14.3336 6.53712 15.9136L10.6272 20.3036ZM8.14781 20.2093C7.44906 19.4593 7.55879 18.341 8.22254 17.7226L12.3126 22.1125C13.9867 20.5528 14.1778 17.8795 12.5377 16.1192L8.14781 20.2093ZM15.3161 13.5307C15.7713 14.0193 15.7443 14.7836 15.2557 15.2389L11.1656 10.849C9.22976 12.6526 9.12254 15.6849 10.9261 17.6207L15.3161 13.5307ZM15.2557 15.2389C14.767 15.6941 14.0027 15.6671 13.5475 15.1785L17.9374 11.0884C16.1338 9.15258 13.1014 9.04535 11.1656 10.849L15.2557 15.2389ZM13.5475 15.1785C13.0922 14.6898 13.1192 13.9255 13.6079 13.4703L17.6979 17.8602C19.6338 16.0566 19.741 13.0243 17.9374 11.0884L13.5475 15.1785ZM13.6079 13.4703C14.0965 13.015 14.8608 13.042 15.3161 13.5307L10.9261 17.6207C12.7297 19.5566 15.7621 19.6638 17.6979 17.8602L13.6079 13.4703ZM17.2381 19.8502C17.9168 20.5787 17.8426 21.6913 17.157 22.3301L13.0669 17.9401C11.371 19.5202 11.2281 22.2015 12.8481 23.9403L17.2381 19.8502ZM17.157 22.3301C16.4499 22.9889 15.3296 22.9492 14.6708 22.2421L19.0607 18.1521C17.4606 16.4347 14.7843 16.3401 13.0669 17.9401L17.157 22.3301ZM14.6708 22.2421C14.002 21.5243 14.0555 20.4111 14.7587 19.756L18.8488 24.1459C20.5486 22.5622 20.6708 19.8802 19.0607 18.1521L14.6708 22.2421ZM14.7587 19.756C15.4404 19.1208 16.5495 19.1112 17.2381 19.8502L12.8481 23.9403C14.478 25.6896 17.1704 25.7096 18.8488 24.1459L14.7587 19.756Z" fill="white" mask="url(#path-3-inside-1)"/>
</g>
<defs>
<clipPath id="clip0">
<rect width="20.8528" height="20.8528" fill="white" transform="translate(16.2568 2) rotate(47.0252)"/>
</clipPath>
</defs>
</svg>
