<svg width="30" height="30" viewBox="0 0 30 30" fill="none" xmlns="http://www.w3.org/2000/svg">
<rect x="0.642857" y="0.642857" width="28.7143" height="28.7143" rx="4.5" stroke="white" stroke-width="1.28571"/>
<path d="M4.28613 6.85713C4.28613 5.43697 5.4374 4.28571 6.85756 4.28571H17.679H23.1433C24.5634 4.28571 25.7147 5.43697 25.7147 6.85713V11.25V23.1429C25.7147 24.563 24.5634 25.7143 23.1433 25.7143H6.85756C5.4374 25.7143 4.28613 24.563 4.28613 23.1428V6.85713Z" fill="#706C6C"/>
<path d="M16.7439 19.1887L13.4408 19.8307L13.9678 22.5422L12.0845 22.9083L11.5575 20.1968L9.51644 20.5935L9.21361 19.0356L11.2547 18.6389L10.9921 17.2881L8.95104 17.6848L8.65013 16.1368L10.6912 15.74L9.29396 8.55202L14.5888 7.52281C16.127 7.22381 17.4224 7.37791 18.475 7.9851C19.5276 8.59228 20.1836 9.56307 20.443 10.8975C20.7151 12.2976 20.4915 13.4633 19.772 14.3944C19.0578 15.3178 17.906 15.9373 16.3165 16.2531L12.8754 16.922L13.1379 18.2728L16.4411 17.6308L16.7439 19.1887ZM12.5744 15.374L15.986 14.7108C17.0049 14.5128 17.7339 14.1221 18.1731 13.5387C18.6123 12.9554 18.7424 12.2035 18.5635 11.2833C18.4013 10.4484 17.9942 9.82833 17.3424 9.42294C16.6893 9.01097 15.8921 8.89306 14.9508 9.0692L11.4801 9.74385L12.5744 15.374Z" fill="white"/>
</svg>
